<mxfile host="app.diagrams.net" agent="Mozilla/5.0 (Windows NT 10.0; Win64; x64) AppleWebKit/537.36 (KHTML, like Gecko) Chrome/131.0.0.0 Safari/537.36" version="25.0.3">
  <diagram id="6a731a19-8d31-9384-78a2-239565b7b9f0" name="Page-1">
    <mxGraphModel dx="2074" dy="1132" grid="1" gridSize="10" guides="1" tooltips="1" connect="1" arrows="1" fold="1" page="1" pageScale="1" pageWidth="1169" pageHeight="827" background="none" math="0" shadow="0">
      <root>
        <mxCell id="0" />
        <mxCell id="1" parent="0" />
        <mxCell id="2" value="start" style="shape=mxgraph.flowchart.terminator;strokeWidth=2;gradientColor=none;gradientDirection=north;fontStyle=0;html=1;" parent="1" vertex="1">
          <mxGeometry x="110" y="60" width="120" height="30" as="geometry" />
        </mxCell>
        <mxCell id="IlHMZtGNVjniCkJJhIyE-17" value="" style="edgeStyle=orthogonalEdgeStyle;rounded=0;orthogonalLoop=1;jettySize=auto;html=1;" parent="1" target="IlHMZtGNVjniCkJJhIyE-2" edge="1">
          <mxGeometry relative="1" as="geometry">
            <mxPoint x="170" y="90" as="sourcePoint" />
          </mxGeometry>
        </mxCell>
        <mxCell id="BEm4GYZW_KskeXJrbdOM-3" value="" style="edgeStyle=orthogonalEdgeStyle;rounded=0;orthogonalLoop=1;jettySize=auto;html=1;" parent="1" source="IlHMZtGNVjniCkJJhIyE-2" target="BEm4GYZW_KskeXJrbdOM-2" edge="1">
          <mxGeometry relative="1" as="geometry" />
        </mxCell>
        <mxCell id="IlHMZtGNVjniCkJJhIyE-2" value="&lt;span style=&quot;text-wrap-mode: nowrap;&quot;&gt;Scan Pick Marker&lt;/span&gt;" style="rounded=1;whiteSpace=wrap;html=1;" parent="1" vertex="1">
          <mxGeometry x="110" y="130" width="120" height="60" as="geometry" />
        </mxCell>
        <mxCell id="IlHMZtGNVjniCkJJhIyE-19" value="No" style="edgeStyle=orthogonalEdgeStyle;rounded=0;orthogonalLoop=1;jettySize=auto;html=1;" parent="1" source="IlHMZtGNVjniCkJJhIyE-3" target="IlHMZtGNVjniCkJJhIyE-9" edge="1">
          <mxGeometry relative="1" as="geometry" />
        </mxCell>
        <mxCell id="BEm4GYZW_KskeXJrbdOM-5" value="Yes" style="edgeStyle=orthogonalEdgeStyle;rounded=0;orthogonalLoop=1;jettySize=auto;html=1;" parent="1" source="IlHMZtGNVjniCkJJhIyE-3" target="IlHMZtGNVjniCkJJhIyE-8" edge="1">
          <mxGeometry relative="1" as="geometry" />
        </mxCell>
        <mxCell id="IlHMZtGNVjniCkJJhIyE-3" value="Final Carton?" style="rhombus;whiteSpace=wrap;html=1;" parent="1" vertex="1">
          <mxGeometry x="110" y="326" width="120" height="80" as="geometry" />
        </mxCell>
        <mxCell id="IlHMZtGNVjniCkJJhIyE-6" value="&lt;span style=&quot;text-wrap-mode: nowrap;&quot;&gt;Despatch&lt;/span&gt;" style="rounded=1;whiteSpace=wrap;html=1;" parent="1" vertex="1">
          <mxGeometry x="630" y="440" width="120" height="60" as="geometry" />
        </mxCell>
        <mxCell id="IlHMZtGNVjniCkJJhIyE-25" value="No" style="edgeStyle=orthogonalEdgeStyle;rounded=0;orthogonalLoop=1;jettySize=auto;html=1;" parent="1" source="IlHMZtGNVjniCkJJhIyE-7" target="IlHMZtGNVjniCkJJhIyE-11" edge="1">
          <mxGeometry relative="1" as="geometry" />
        </mxCell>
        <mxCell id="BEm4GYZW_KskeXJrbdOM-9" value="Yes" style="edgeStyle=orthogonalEdgeStyle;rounded=0;orthogonalLoop=1;jettySize=auto;html=1;" parent="1" source="IlHMZtGNVjniCkJJhIyE-7" edge="1">
          <mxGeometry relative="1" as="geometry">
            <mxPoint x="690" y="440" as="targetPoint" />
          </mxGeometry>
        </mxCell>
        <mxCell id="IlHMZtGNVjniCkJJhIyE-7" value="Sales Order?" style="rhombus;whiteSpace=wrap;html=1;" parent="1" vertex="1">
          <mxGeometry x="630" y="326" width="120" height="80" as="geometry" />
        </mxCell>
        <mxCell id="BEm4GYZW_KskeXJrbdOM-6" value="" style="edgeStyle=orthogonalEdgeStyle;rounded=0;orthogonalLoop=1;jettySize=auto;html=1;" parent="1" source="tfSkVG_J4HKu-Fl51bHs-2" target="IlHMZtGNVjniCkJJhIyE-7" edge="1">
          <mxGeometry relative="1" as="geometry" />
        </mxCell>
        <mxCell id="IlHMZtGNVjniCkJJhIyE-8" value="&lt;span style=&quot;text-wrap-mode: nowrap;&quot;&gt;Popup message&lt;/span&gt;&lt;div&gt;&lt;span style=&quot;text-wrap-mode: nowrap;&quot;&gt;Showing locations&amp;nbsp;&lt;/span&gt;&lt;/div&gt;&lt;div&gt;&lt;span style=&quot;text-wrap-mode: nowrap;&quot;&gt;of other cartons&lt;/span&gt;&lt;/div&gt;" style="rounded=1;whiteSpace=wrap;html=1;" parent="1" vertex="1">
          <mxGeometry x="290" y="336" width="120" height="60" as="geometry" />
        </mxCell>
        <mxCell id="IlHMZtGNVjniCkJJhIyE-21" value="" style="edgeStyle=orthogonalEdgeStyle;rounded=0;orthogonalLoop=1;jettySize=auto;html=1;" parent="1" source="IlHMZtGNVjniCkJJhIyE-9" target="IlHMZtGNVjniCkJJhIyE-10" edge="1">
          <mxGeometry relative="1" as="geometry" />
        </mxCell>
        <mxCell id="IlHMZtGNVjniCkJJhIyE-9" value="&lt;span style=&quot;text-wrap-mode: nowrap;&quot;&gt;Park Container&lt;/span&gt;&lt;div&gt;&lt;span style=&quot;text-wrap-mode: nowrap;&quot;&gt;on Rack&lt;/span&gt;&lt;/div&gt;" style="rounded=1;whiteSpace=wrap;html=1;" parent="1" vertex="1">
          <mxGeometry x="110" y="440" width="120" height="60" as="geometry" />
        </mxCell>
        <mxCell id="IlHMZtGNVjniCkJJhIyE-10" value="&lt;span style=&quot;text-wrap-mode: nowrap;&quot;&gt;Scan Rack location&lt;/span&gt;" style="rounded=1;whiteSpace=wrap;html=1;" parent="1" vertex="1">
          <mxGeometry x="110" y="530" width="120" height="60" as="geometry" />
        </mxCell>
        <mxCell id="IlHMZtGNVjniCkJJhIyE-26" value="" style="edgeStyle=orthogonalEdgeStyle;rounded=0;orthogonalLoop=1;jettySize=auto;html=1;" parent="1" source="IlHMZtGNVjniCkJJhIyE-11" target="IlHMZtGNVjniCkJJhIyE-13" edge="1">
          <mxGeometry relative="1" as="geometry" />
        </mxCell>
        <mxCell id="IlHMZtGNVjniCkJJhIyE-11" value="&lt;span style=&quot;text-wrap-mode: nowrap;&quot;&gt;Print Transfer Label&lt;/span&gt;" style="rounded=1;whiteSpace=wrap;html=1;" parent="1" vertex="1">
          <mxGeometry x="818.5" y="336" width="120" height="60" as="geometry" />
        </mxCell>
        <mxCell id="IlHMZtGNVjniCkJJhIyE-13" value="&lt;span style=&quot;text-wrap-mode: nowrap;&quot;&gt;Load onto&amp;nbsp;&lt;/span&gt;&lt;div&gt;&lt;span style=&quot;text-wrap-mode: nowrap;&quot;&gt;Transfer Pallets&lt;/span&gt;&lt;/div&gt;" style="rounded=1;whiteSpace=wrap;html=1;" parent="1" vertex="1">
          <mxGeometry x="998.5" y="336" width="120" height="60" as="geometry" />
        </mxCell>
        <mxCell id="BEm4GYZW_KskeXJrbdOM-4" value="" style="edgeStyle=orthogonalEdgeStyle;rounded=0;orthogonalLoop=1;jettySize=auto;html=1;" parent="1" source="BEm4GYZW_KskeXJrbdOM-2" target="IlHMZtGNVjniCkJJhIyE-3" edge="1">
          <mxGeometry relative="1" as="geometry" />
        </mxCell>
        <mxCell id="BEm4GYZW_KskeXJrbdOM-2" value="&lt;span style=&quot;text-wrap-mode: nowrap;&quot;&gt;Weigh the carton,&lt;/span&gt;&lt;div&gt;&lt;span style=&quot;text-wrap-mode: nowrap;&quot;&gt;Save on Navigator&lt;/span&gt;&lt;/div&gt;" style="rounded=1;whiteSpace=wrap;html=1;" parent="1" vertex="1">
          <mxGeometry x="110" y="230" width="120" height="60" as="geometry" />
        </mxCell>
        <mxCell id="tfSkVG_J4HKu-Fl51bHs-3" value="" style="edgeStyle=orthogonalEdgeStyle;rounded=0;orthogonalLoop=1;jettySize=auto;html=1;" parent="1" source="IlHMZtGNVjniCkJJhIyE-8" target="tfSkVG_J4HKu-Fl51bHs-2" edge="1">
          <mxGeometry relative="1" as="geometry">
            <mxPoint x="410" y="366" as="sourcePoint" />
            <mxPoint x="630" y="366" as="targetPoint" />
          </mxGeometry>
        </mxCell>
        <mxCell id="tfSkVG_J4HKu-Fl51bHs-2" value="&lt;span style=&quot;text-wrap-mode: nowrap;&quot;&gt;Retrieve Parked&lt;/span&gt;&lt;div&gt;&lt;span style=&quot;text-wrap-mode: nowrap;&quot;&gt;Containers&lt;/span&gt;&lt;/div&gt;" style="rounded=1;whiteSpace=wrap;html=1;" parent="1" vertex="1">
          <mxGeometry x="460" y="336" width="120" height="60" as="geometry" />
        </mxCell>
      </root>
    </mxGraphModel>
  </diagram>
</mxfile>
